<svg xmlns="http://www.w3.org/2000/svg" width="19" height="19" viewBox="0 0 19 19">
  <metadata><?xpacket begin="﻿" id="W5M0MpCehiHzreSzNTczkc9d"?>
<x:xmpmeta xmlns:x="adobe:ns:meta/" x:xmptk="Adobe XMP Core 5.6-c138 79.159824, 2016/09/14-01:09:01        ">
   <rdf:RDF xmlns:rdf="http://www.w3.org/1999/02/22-rdf-syntax-ns#">
      <rdf:Description rdf:about=""/>
   </rdf:RDF>
</x:xmpmeta>
                                                                                                    
                                                                                                    
                                                                                                    
                                                                                                    
                                                                                                    
                                                                                                    
                                                                                                    
                                                                                                    
                                                                                                    
                                                                                                    
                                                                                                    
                                                                                                    
                                                                                                    
                                                                                                    
                                                                                                    
                                                                                                    
                                                                                                    
                                                                                                    
                                                                                                    
                                                                                                    
                           
<?xpacket end="w"?></metadata>
<defs>
    <style>
      .cls-1 {
        fill: #fff;
        fill-rule: evenodd;
      }
    </style>
  </defs>
  <path class="cls-1" d="M1330.98,2216.66h0c0,0.03.01,0.06,0.01,0.1v0.02a0.308,0.308,0,0,1,.01.1v0.02h0a1.231,1.231,0,0,1-.28.77h0l-6.73,7.91h0a1.176,1.176,0,0,1-.91.42h0a0.448,0.448,0,0,1-.11-0.01,0.22,0.22,0,0,1-.08-0.01h-0.03a1.19,1.19,0,0,1-.56-0.28v0.01l-9.89-9.11h0a1.157,1.157,0,0,1-.4-0.87H1312v-7.54h0a1.186,1.186,0,0,1,1.19-1.19h7.52a1.194,1.194,0,0,1,.84.35l9.09,8.7A1.158,1.158,0,0,1,1330.98,2216.66Zm-15.81-8.07a1.58,1.58,0,1,0,1.58,1.58A1.571,1.571,0,0,0,1315.17,2208.59Z" transform="translate(-1312 -2207)"/>
</svg>
